<svg width="293" height="293" viewBox="0 0 293 293" fill="none" xmlns="http://www.w3.org/2000/svg">
<mask id="mask0_16_17754" style="mask-type:alpha" maskUnits="userSpaceOnUse" x="0" y="0" width="293" height="293">
<path d="M0 101.949C0 65.8878 0 47.8569 7.12927 34.1325C13.137 22.5671 22.5671 13.137 34.1325 7.12927C47.8569 0 65.8877 0 101.949 0H190.309C226.37 0 244.401 0 258.126 7.12927C269.691 13.137 279.121 22.5671 285.129 34.1325C292.258 47.8569 292.258 65.8877 292.258 101.949V190.309C292.258 226.37 292.258 244.401 285.129 258.126C279.121 269.691 269.691 279.121 258.126 285.129C244.401 292.258 226.37 292.258 190.309 292.258H101.949C65.8878 292.258 47.8569 292.258 34.1325 285.129C22.5671 279.121 13.137 269.691 7.12927 258.126C0 244.401 0 226.37 0 190.309V101.949Z" fill="#C4C4C4"/>
</mask>
<g mask="url(#mask0_16_17754)">
<rect width="292.258" height="292.258" fill="#F18D8D"/>
<rect width="292.258" height="292.258" fill="white"/>
<g opacity="0.4">
<mask id="mask1_16_17754" style="mask-type:luminance" maskUnits="userSpaceOnUse" x="0" y="0" width="293" height="293">
<rect width="292.258" height="292.258" fill="white"/>
</mask>
<g mask="url(#mask1_16_17754)">
<path opacity="0.5" fill-rule="evenodd" clip-rule="evenodd" d="M201.545 259.309C213.89 253.24 225.103 245.218 234.777 235.636L271.314 272.174H201.545V259.309ZM146.747 272.174V272.159C165.909 272.066 184.075 267.683 200.327 259.909V272.174H146.747ZM91.9482 272.174V259.909C108.2 267.683 126.366 272.066 145.529 272.159V272.174H91.9482ZM20.9635 272.174L57.4982 235.636C67.172 245.218 78.3874 253.24 90.7304 259.309V272.174H20.9635ZM32.9656 201.545C39.0348 213.89 47.0573 225.103 56.6385 234.777L20.1014 271.314V201.545H32.9656ZM20.1014 146.746H20.116C20.2085 165.911 24.5924 184.075 32.3665 200.327H20.1014V146.746ZM20.1014 91.9478H32.3665C24.5924 108.2 20.2085 126.366 20.116 145.528H20.1014V91.9478ZM20.1014 20.9632L56.6385 57.4979C47.0573 67.1716 39.0348 78.387 32.9656 90.7301H20.1014V20.9632ZM90.7304 32.9653C78.3874 39.0345 67.172 47.057 57.4982 56.6382L20.9635 20.101H90.7304V32.9653ZM145.529 20.101V20.1156C126.366 20.2082 108.2 24.5945 91.9482 32.3661V20.101H145.529ZM200.327 20.101V32.3661C184.075 24.5945 165.909 20.2082 146.747 20.1156V20.101H200.327ZM271.314 20.101L234.777 56.6382C225.103 47.057 213.89 39.0345 201.545 32.9653V20.101H271.314ZM259.31 90.7301C253.243 78.387 245.22 67.1716 235.639 57.4979L272.174 20.9632V90.7301H259.31ZM272.174 145.528H272.159C272.069 126.366 267.683 108.2 259.911 91.9478H272.174V145.528ZM272.174 200.327H259.911C267.683 184.075 272.069 165.911 272.159 146.746H272.174V200.327ZM202.407 201.545H257.941C251.967 213.556 244.124 224.477 234.777 233.915L202.407 201.545ZM201.545 202.404L233.917 234.777C224.477 244.124 213.557 251.964 201.545 257.941V202.404ZM146.747 224.667C167.504 224.506 186.357 216.252 200.327 202.913V258.567C184.102 266.419 165.928 270.849 146.747 270.941V224.667ZM91.9482 202.913C105.918 216.252 124.771 224.506 145.529 224.667V270.941C126.347 270.849 108.173 266.419 91.9482 258.567V202.913ZM90.7304 202.407V257.941C78.721 251.964 67.7979 244.124 58.3604 234.777L90.7304 202.407ZM89.8707 201.545L57.4982 233.915C48.1509 224.477 40.311 213.556 34.3344 201.545H89.8707ZM67.6079 146.746C67.7687 167.504 76.0225 186.357 89.3617 200.327H33.7084C25.8564 184.102 21.4263 165.928 21.3337 146.746H67.6079ZM89.3617 91.9478C76.0225 105.918 67.7687 124.771 67.6079 145.528H21.3337C21.4263 126.347 25.8564 108.173 33.7109 91.9478H89.3617ZM89.8707 90.7301H34.3344C40.311 78.7207 48.1509 67.7975 57.4982 58.36L89.8707 90.7301ZM90.7304 89.8679L58.3604 57.4979C67.7979 48.1505 78.721 40.3107 90.7304 34.334V89.8679ZM145.529 67.6076C124.771 67.7683 105.918 76.0222 91.9482 89.3613V33.7105C108.173 25.8561 126.347 21.4259 145.529 21.3334V67.6076ZM200.327 89.3613C186.357 76.0222 167.504 67.7683 146.747 67.6076V21.3334C165.928 21.4259 184.102 25.8561 200.327 33.7105V89.3613ZM201.545 89.8703V34.334C213.557 40.3107 224.477 48.1505 233.917 57.4979L201.545 89.8703ZM202.407 90.7301L234.777 58.36C244.124 67.7975 251.964 78.7207 257.941 90.7301H202.407ZM224.667 145.528C224.509 124.771 216.253 105.918 202.914 91.9478H258.567C266.419 108.173 270.849 126.347 270.942 145.528H224.667ZM224.667 146.746H270.942C270.849 165.928 266.419 184.102 258.567 200.327H202.914C216.253 186.357 224.509 167.504 224.667 146.746ZM146.747 201.545H199.998C186.199 214.964 167.431 223.289 146.747 223.449V201.545ZM145.529 201.545V223.449C124.844 223.289 106.076 214.964 92.2769 201.545H145.529ZM90.7304 146.746V199.998C77.3133 186.199 68.9889 167.431 68.8257 146.746H90.7304ZM90.7304 145.528H68.8257C68.9889 124.844 77.3133 106.076 90.7304 92.2766V145.528ZM145.529 90.7301H92.2769C106.076 77.313 124.844 68.9885 145.529 68.8253V90.7301ZM146.747 90.7301V68.8253C167.431 68.9885 186.199 77.313 199.998 90.7301H146.747ZM201.545 145.528V92.2766C214.964 106.076 223.289 124.844 223.45 145.528H201.545ZM201.545 146.746H223.45C223.289 167.431 214.964 186.199 201.545 200V146.746ZM146.747 147.606L199.467 200.327H146.747V147.606ZM145.529 147.608V200.327H92.8103L145.529 147.608ZM144.669 146.746L91.9482 199.467V146.746H144.669ZM144.669 145.528H91.9482V92.8075L144.669 145.528ZM145.529 144.666L92.8103 91.9478H145.529V144.666ZM146.747 144.669V91.9478H199.467L146.747 144.669ZM200.327 146.746V199.465L147.609 146.746H200.327ZM147.609 145.528L200.327 92.81V145.528H147.609ZM272.174 271.314L235.639 234.777C245.22 225.103 253.243 213.89 259.31 201.545H272.174V271.314ZM295.564 294.702L274.254 273.391H292.876V272.174H273.392V201.545H292.876V200.327H273.392V146.746H292.876V145.528H273.392V91.9478H292.876V90.7301H273.392V20.101H292.876V18.8833H274.254L293.129 0.00828534L292.267 -0.85144L273.392 18.0236V-0.600586H272.174V18.8833H201.545V-0.600586H200.327V18.8833H146.747V-0.600586H145.529V18.8833H91.9482V-0.600586H90.7304V18.8833H20.1014V-0.600586H18.8836V18.0236L0.00864565 -0.85144L-0.853516 0.00828534L18.0239 18.8833H-0.600225V20.101H18.8836V90.7301H-0.600225V91.9478H18.8836V145.528H-0.600225V146.746H18.8836V200.327H-0.600225V201.545H18.8836V272.174H-0.600225V273.391H18.0239L-0.853516 292.266L0.00864565 293.129L18.8836 274.254V292.875H20.1014V273.391H90.7304V292.875H91.9482V273.391H145.529V292.875H146.747V273.391H200.327V292.875H201.545V273.391H272.174V292.875H273.392V274.254L294.702 295.564L295.564 294.702Z" fill="white"/>
</g>
</g>
<g opacity="0.4">
<rect opacity="0.720266" x="49.3757" y="12.8434" width="194.078" height="267.142" rx="20.264" stroke="white" stroke-width="0.570817"/>
<rect opacity="0.720266" x="31.1096" y="31.1095" width="230.61" height="230.61" rx="20.264" stroke="white" stroke-width="0.570817"/>
<rect opacity="0.720266" x="12.8435" y="49.3756" width="267.142" height="194.078" rx="20.264" stroke="white" stroke-width="0.570817"/>
<path d="M146.415 12.8431C220.184 12.8431 279.986 72.6451 279.986 146.414C279.986 220.184 220.184 279.986 146.415 279.986C72.6453 279.986 12.8433 220.184 12.8433 146.414C12.8433 72.6452 72.6453 12.8431 146.415 12.8431Z" stroke="white" stroke-width="0.570817"/>
<path d="M146.414 86.4785C179.516 86.4785 206.35 113.313 206.351 146.414C206.351 179.516 179.516 206.351 146.414 206.351C113.313 206.35 86.4785 179.515 86.4785 146.414C86.4788 113.313 113.313 86.4787 146.414 86.4785Z" stroke="white" stroke-width="0.570817"/>
<rect x="104.174" y="104.174" width="84.4808" height="84.4808" stroke="white" stroke-width="0.570817"/>
<path d="M104.174 0.2854V292.543" stroke="white" stroke-width="0.570817" stroke-linecap="square"/>
<path d="M146.414 0V292.258" stroke="white" stroke-width="0.570817" stroke-linecap="square"/>
<path d="M188.655 0V292.258" stroke="white" stroke-width="0.570817" stroke-linecap="square"/>
<path d="M292.544 104.174H0.285645" stroke="white" stroke-width="0.570817" stroke-linecap="square"/>
<path d="M292.258 146.414H0" stroke="white" stroke-width="0.570817" stroke-linecap="square"/>
<path d="M292.544 188.655H0.285645" stroke="white" stroke-width="0.570817" stroke-linecap="square"/>
<path d="M0.285645 0.2854L292.544 292.543" stroke="white" stroke-width="0.570817" stroke-linecap="square"/>
<path d="M292.543 0.2854L0.2854 292.543" stroke="white" stroke-width="0.570817" stroke-linecap="square"/>
</g>
<path fill-rule="evenodd" clip-rule="evenodd" d="M114.369 180.422V125.396C114.369 114.072 121.986 106.163 132.892 106.163H138.116V117.84H132.892C127.235 117.84 126.046 121.948 126.046 125.395V129.685H138.415V139.516H126.047V180.419L114.369 180.422ZM185.158 179.386C188.266 180.657 191.598 181.288 194.956 181.241C197.635 181.259 200.306 180.924 202.898 180.245C205.331 179.595 207.651 178.581 209.782 177.24C212.577 175.482 214.943 173.118 216.703 170.324L216.999 169.85C215.458 168.659 213.955 167.403 212.456 166.148C211.567 165.405 210.678 164.662 209.784 163.933L209.466 164.299C207.15 166.971 203.567 171.107 194.959 171.107C193.226 171.112 191.507 170.791 189.893 170.159C186.53 168.765 183.807 166.168 182.256 162.874C181.651 161.546 181.213 160.148 180.952 158.711H220.505V153.586C220.416 150.113 219.7 146.684 218.392 143.465C216.483 138.931 213.278 135.061 209.18 132.339C205.082 129.617 200.272 128.164 195.353 128.162C191.902 128.13 188.478 128.763 185.267 130.026C182.123 131.311 179.266 133.211 176.865 135.614C174.396 138.029 172.464 140.938 171.195 144.15C169.904 147.552 169.265 151.166 169.31 154.804C169.266 158.414 169.906 161.999 171.196 165.37C172.469 168.562 174.401 171.449 176.867 173.843C179.229 176.229 182.049 178.115 185.158 179.386ZM161.533 180.626H166.809V169.31H161.563C159.45 169.124 157.868 168.441 156.728 167.224C155.324 165.724 154.723 163.925 154.723 161.212V139.284H166.81V129.547H154.723V117.994H143.205V161.899C143.159 164.627 143.572 167.343 144.428 169.934C145.187 172.169 146.459 174.194 148.142 175.849C149.807 177.452 151.799 178.676 153.981 179.437C156.413 180.26 158.966 180.661 161.533 180.626ZM96.2321 180.574H109.296L79.056 112.899C78.522 111.704 77.6526 110.69 76.5533 109.979C75.4541 109.269 74.1722 108.893 72.8633 108.897C71.5545 108.901 70.2749 109.285 69.1799 110.002C68.085 110.719 67.2217 111.738 66.6949 112.936L36.9604 180.574H49.5242L57.1142 163.194H88.5556L96.2321 180.574ZM83.8787 152.265H61.7935L72.8334 126.256L83.8787 152.265ZM181.174 149.244H208.537C208.198 147.767 207.66 146.344 206.938 145.012C206.185 143.639 205.178 142.423 203.969 141.429C202.797 140.468 201.463 139.725 200.029 139.234C198.523 138.735 196.945 138.487 195.358 138.5C193.743 138.496 192.138 138.752 190.605 139.26C189.035 139.794 187.556 140.566 186.221 141.549C184.87 142.521 183.723 143.747 182.843 145.159C182.073 146.422 181.51 147.8 181.174 149.241V149.244ZM249.59 128.283V139.731C241.148 139.731 236.922 146.038 236.922 152.484V180.748H225.34V152.484C225.34 140.41 233.709 128.283 249.59 128.283Z" fill="#262626"/>
</g>
</svg>
